<?xml version="1.0" standalone="no"?>
<!DOCTYPE svg PUBLIC "-//W3C//DTD SVG 20010904//EN"
 "http://www.w3.org/TR/2001/REC-SVG-20010904/DTD/svg10.dtd">
<svg version="1.0" xmlns="http://www.w3.org/2000/svg"
 width="1024.000000pt" height="1024.000000pt" viewBox="0 0 1024.000000 1024.000000"
 preserveAspectRatio="xMidYMid meet">

<g transform="translate(0.000000,1024.000000) scale(0.100000,-0.100000)"
fill="#000000" stroke="none">
<path d="M4975 8690 c-244 -36 -494 -175 -665 -370 -73 -84 -67 -82 -195 -57
-134 26 -203 29 -317 13 -170 -24 -273 -65 -393 -156 -147 -111 -250 -255
-305 -427 -91 -284 -14 -590 204 -808 113 -113 217 -172 391 -219 l80 -22 3
-60 c2 -32 -4 -160 -12 -284 -45 -654 -45 -980 -2 -1135 44 -160 121 -315 221
-446 26 -32 44 -63 41 -68 -3 -4 -39 -30 -81 -57 -41 -27 -75 -55 -75 -62 0
-26 225 -237 325 -303 106 -70 157 -99 176 -99 19 0 137 99 156 131 20 34 23
35 71 10 43 -22 147 -57 212 -72 67 -15 257 -39 312 -39 30 0 47 -4 43 -10 -3
-5 -34 -10 -68 -10 -143 0 -407 -30 -617 -70 -311 -60 -847 -234 -1017 -331
-125 -72 -144 -123 -70 -193 23 -23 59 -50 80 -61 35 -19 40 -19 95 -3 31 8
100 32 152 52 417 161 794 251 1195 285 642 55 1019 -2 1705 -256 202 -75 217
-76 332 -21 201 96 186 172 -53 269 -417 171 -878 284 -1299 320 -159 13 -221
27 -128 28 32 1 107 8 168 16 554 78 971 423 1083 898 19 83 21 119 21 352 -1
143 -6 357 -13 475 -6 118 -16 301 -21 405 -6 105 -13 216 -16 247 l-5 57 113
55 c258 124 402 289 486 556 19 59 33 208 27 273 -14 140 -37 223 -92 331
-136 271 -373 428 -703 466 -115 14 -182 9 -322 -22 l-97 -21 -103 105 c-180
184 -368 285 -619 333 -85 16 -311 19 -404 5z m420 -293 c186 -55 339 -156
426 -284 45 -64 96 -177 116 -254 9 -38 20 -69 23 -69 3 0 17 11 31 23 246
229 564 261 815 81 71 -50 143 -137 179 -217 66 -144 60 -349 -15 -498 -87
-171 -282 -284 -480 -278 -47 2 -87 1 -89 -2 -2 -2 -1 -38 2 -79 7 -73 29
-417 43 -667 4 -78 3 -123 -3 -123 -5 0 -43 11 -84 26 -381 131 -926 202
-1334 175 -343 -23 -652 -91 -939 -206 -37 -15 -70 -25 -72 -22 -3 2 0 69 6
148 12 171 37 562 44 705 l5 102 -72 -19 c-184 -48 -360 2 -498 140 -106 106
-159 231 -159 377 0 241 166 459 395 519 76 19 233 19 310 0 84 -21 217 -90
276 -143 27 -24 51 -43 53 -41 2 2 13 35 25 73 55 178 167 332 316 433 76 51
132 75 220 96 39 9 79 18 90 21 42 10 321 -3 370 -17z m205 -2522 c190 -29
416 -91 550 -151 95 -43 201 -99 259 -137 l63 -42 -6 -165 c-6 -171 -14 -218
-61 -335 -93 -231 -267 -400 -515 -499 -406 -162 -962 -150 -1359 31 -344 157
-539 437 -541 778 l0 80 73 70 c224 216 546 340 1012 389 84 9 424 -4 525 -19z"/>
<path d="M2489 3090 c-26 -4 -68 -17 -93 -29 -80 -35 -76 3 -76 -775 l0 -685
21 -20 c12 -11 34 -23 50 -26 30 -7 144 18 166 36 10 9 13 65 13 255 l0 244
27 11 c15 5 43 9 62 7 32 -3 42 -12 124 -128 49 -69 126 -182 172 -251 46 -70
92 -129 102 -131 31 -8 161 10 198 27 24 12 35 24 35 39 0 25 -40 91 -94 156
-63 74 -256 348 -256 362 0 8 13 21 28 30 16 10 61 47 100 83 52 49 81 85 104
133 31 64 33 73 33 183 l0 115 -43 86 c-66 135 -174 221 -329 264 -66 19 -274
27 -344 14z m303 -285 c68 -11 117 -68 138 -158 12 -57 -2 -103 -49 -152 -53
-56 -104 -78 -197 -83 -114 -6 -114 -5 -114 203 0 88 4 166 8 173 5 7 35 16
68 21 58 9 73 8 146 -4z"/>
<path d="M6444 2865 c-125 -27 -223 -94 -278 -187 -89 -154 -111 -490 -45
-703 43 -143 114 -227 245 -292 57 -28 87 -36 151 -40 90 -6 204 14 266 47 20
11 39 20 41 20 9 0 -6 -103 -25 -182 -37 -156 -126 -236 -230 -208 -59 16 -94
45 -139 116 -22 35 -49 69 -62 78 -48 34 -132 7 -163 -53 -47 -92 85 -293 232
-353 49 -19 76 -23 169 -23 107 0 112 1 186 38 174 86 279 266 308 531 14 125
17 1153 4 1166 -13 13 -90 25 -289 45 -171 18 -290 18 -371 0z m239 -267 c43
-30 54 -43 88 -114 42 -86 61 -189 63 -331 1 -120 1 -122 -29 -164 -39 -56
-83 -85 -151 -100 -108 -24 -209 22 -258 120 -43 84 -64 261 -46 376 20 128
69 202 155 234 45 16 141 5 178 -21z"/>
<path d="M7545 2864 c-143 -35 -235 -129 -266 -274 -33 -154 72 -321 231 -368
72 -21 201 -71 256 -98 94 -48 130 -121 96 -197 -40 -90 -135 -120 -234 -75
-67 32 -118 84 -165 167 -20 36 -41 69 -47 73 -6 4 -35 8 -63 8 -80 0 -112
-42 -100 -131 15 -114 142 -265 277 -331 147 -71 240 -72 386 -3 229 110 305
403 156 600 -53 71 -99 97 -263 154 -186 64 -211 75 -254 112 -91 81 10 182
160 159 74 -11 92 -21 175 -95 71 -64 77 -67 115 -62 53 8 110 66 120 125 10
60 -23 125 -83 163 -121 77 -345 110 -497 73z"/>
<path d="M5362 2859 c-70 -13 -148 -54 -202 -105 -77 -72 -117 -146 -151 -280
-56 -225 -35 -480 56 -653 125 -237 413 -312 639 -167 96 61 206 205 206 269
0 28 -24 52 -60 60 -43 10 -97 -9 -167 -61 -107 -78 -146 -95 -214 -90 -82 6
-143 46 -180 118 -29 56 -65 218 -52 231 5 4 148 9 318 11 202 3 319 8 336 15
16 7 31 25 38 44 14 41 14 183 0 251 -16 75 -76 185 -131 241 -101 102 -275
148 -436 116z m187 -229 c49 -24 75 -57 101 -126 17 -46 27 -113 18 -115 -31
-6 -284 -9 -345 -4 -79 6 -83 8 -83 31 0 78 69 190 135 220 45 20 129 17 174
-6z"/>
<path d="M3890 2834 c-25 -14 -51 -32 -57 -41 -16 -21 -16 -75 -2 -128 27 -98
383 -1032 400 -1050 16 -16 32 -20 87 -20 37 0 79 4 94 8 42 11 82 87 177 342
79 208 191 505 240 629 75 195 76 227 7 260 -47 22 -138 21 -158 -1 -43 -49
-199 -435 -310 -768 -11 -33 -22 -67 -25 -75 -4 -11 -8 -8 -15 10 -24 59 -104
281 -264 737 -43 122 -87 146 -174 97z"/>
<path d="M3511 2817 c-13 -6 -33 -25 -45 -40 -27 -37 -34 -162 -35 -665 -1
-418 1 -434 48 -476 32 -28 130 -34 182 -11 21 10 39 23 40 29 3 30 -4 76 -18
126 -14 46 -17 132 -20 509 -5 496 -5 496 -63 526 -35 18 -57 19 -89 2z"/>
</g>
</svg>
